<svg xmlns:xlink="http://www.w3.org/1999/xlink" xmlns="http://www.w3.org/2000/svg" width="369.675pt" height="220.172279pt" viewBox="0 0 369.675 220.172279" version="1.1">
 <metadata>
  <rdf:RDF xmlns:dc="http://purl.org/dc/elements/1.1/" xmlns:cc="http://creativecommons.org/ns#" xmlns:rdf="http://www.w3.org/1999/02/22-rdf-syntax-ns#">
   <cc:Work>
    <dc:type rdf:resource="http://purl.org/dc/dcmitype/StillImage"/>
    <dc:date>2024-09-30T05:35:43.159608</dc:date>
    <dc:format>image/svg+xml</dc:format>
    <dc:creator>
     <cc:Agent>
      <dc:title>Matplotlib v3.9.2, https://matplotlib.org/</dc:title>
     </cc:Agent>
    </dc:creator>
   </cc:Work>
  </rdf:RDF>
 </metadata>
 <defs>
  <style type="text/css">*{stroke-linejoin: round; stroke-linecap: butt}</style>
 </defs>
 <g id="figure_1">
  <g id="patch_1">
   <path d="M 0 220.172279  L 369.675 220.172279  L 369.675 0  L 0 0  z " style="fill: #ffffff"/>
  </g>
  <g id="axes_1">
   <g id="patch_2">
    <path d="M 124.8525 212.384561  L 251.7975 212.384561  L 251.7975 86.258561  L 124.8525 86.258561  z " clip-path="url(#p58e8576560)" style="fill: #a8e1b0; fill-opacity: 0.5; stroke: #808080; stroke-width: 0.7; stroke-linejoin: miter"/>
   </g>
   <g id="line2d_1">
    <path d="M 3.348 31.144678  L 370.675 31.144678  " clip-path="url(#p58e8576560)" style="fill: none; stroke: #c2c2c2; stroke-width: 0.5; stroke-linecap: square"/>
   </g>
   <g id="text_1">
    <!-- t -->
    <g style="fill: #444443" transform="translate(6.975 9.947031) scale(0.13 -0.13)">
     <defs>
      <path id="DejaVuSansMono-74" d="M 1919 4494  L 1919 3500  L 3225 3500  L 3225 3053  L 1919 3053  L 1919 1153  Q 1919 766 2066 612  Q 2213 459 2578 459  L 3225 459  L 3225 0  L 2522 0  Q 1875 0 1609 259  Q 1344 519 1344 1153  L 1344 3053  L 409 3053  L 409 3500  L 1344 3500  L 1344 4494  L 1919 4494  z " transform="scale(0.015625)"/>
     </defs>
     <use xlink:href="#DejaVuSansMono-74"/>
    </g>
   </g>
   <g id="text_2">
    <!-- e -->
    <g style="fill: #444443" transform="translate(43.245 9.947031) scale(0.13 -0.13)">
     <defs>
      <path id="DejaVuSansMono-65" d="M 3475 1894  L 3475 1613  L 984 1613  L 984 1594  Q 984 1022 1282 709  Q 1581 397 2125 397  Q 2400 397 2700 484  Q 3000 572 3341 750  L 3341 178  Q 3013 44 2708 -23  Q 2403 -91 2119 -91  Q 1303 -91 843 398  Q 384 888 384 1747  Q 384 2584 834 3084  Q 1284 3584 2034 3584  Q 2703 3584 3089 3131  Q 3475 2678 3475 1894  z M 2900 2063  Q 2888 2569 2661 2833  Q 2434 3097 2009 3097  Q 1594 3097 1325 2822  Q 1056 2547 1006 2059  L 2900 2063  z " transform="scale(0.015625)"/>
     </defs>
     <use xlink:href="#DejaVuSansMono-65"/>
    </g>
   </g>
   <g id="text_3">
    <!-- s -->
    <g style="fill: #444443" transform="translate(79.515 9.947031) scale(0.13 -0.13)">
     <defs>
      <path id="DejaVuSansMono-73" d="M 3041 3378  L 3041 2816  Q 2794 2959 2544 3031  Q 2294 3103 2034 3103  Q 1644 3103 1451 2976  Q 1259 2850 1259 2591  Q 1259 2356 1403 2240  Q 1547 2125 2119 2016  L 2350 1972  Q 2778 1891 2998 1647  Q 3219 1403 3219 1013  Q 3219 494 2850 201  Q 2481 -91 1825 -91  Q 1566 -91 1281 -36  Q 997 19 666 128  L 666 722  Q 988 556 1281 473  Q 1575 391 1838 391  Q 2219 391 2428 545  Q 2638 700 2638 978  Q 2638 1378 1872 1531  L 1847 1538  L 1631 1581  Q 1134 1678 906 1908  Q 678 2138 678 2534  Q 678 3038 1018 3311  Q 1359 3584 1991 3584  Q 2272 3584 2531 3532  Q 2791 3481 3041 3378  z " transform="scale(0.015625)"/>
     </defs>
     <use xlink:href="#DejaVuSansMono-73"/>
    </g>
   </g>
   <g id="text_4">
    <!-- t -->
    <g style="fill: #444443" transform="translate(115.785 9.947031) scale(0.13 -0.13)">
     <use xlink:href="#DejaVuSansMono-74"/>
    </g>
   </g>
   <g id="text_5">
    <!-- _ -->
    <g style="fill: #444443" transform="translate(152.055 9.947031) scale(0.13 -0.13)">
     <defs>
      <path id="DejaVuSansMono-5f" d="M 3853 -1259  L 3853 -1509  L 0 -1509  L 0 -1259  L 3853 -1259  z " transform="scale(0.015625)"/>
     </defs>
     <use xlink:href="#DejaVuSansMono-5f"/>
    </g>
   </g>
   <g id="text_6">
    <!-- q -->
    <g style="fill: #444443" transform="translate(188.325 9.947031) scale(0.13 -0.13)">
     <defs>
      <path id="DejaVuSansMono-71" d="M 1038 1734  Q 1038 1066 1248 725  Q 1459 384 1875 384  Q 2291 384 2505 726  Q 2719 1069 2719 1734  Q 2719 2400 2505 2742  Q 2291 3084 1875 3084  Q 1459 3084 1248 2743  Q 1038 2403 1038 1734  z M 2719 434  Q 2578 175 2339 36  Q 2100 -103 1784 -103  Q 1156 -103 792 383  Q 428 869 428 1722  Q 428 2591 790 3081  Q 1153 3572 1784 3572  Q 2097 3572 2336 3436  Q 2575 3300 2719 3041  L 2719 3488  L 3297 3488  L 3297 -1344  L 2719 -1344  L 2719 434  z " transform="scale(0.015625)"/>
     </defs>
     <use xlink:href="#DejaVuSansMono-71"/>
    </g>
   </g>
   <g id="text_7">
    <!-- u -->
    <g style="fill: #444443" transform="translate(224.595 9.947031) scale(0.13 -0.13)">
     <defs>
      <path id="DejaVuSansMono-75" d="M 609 1325  L 609 3494  L 1184 3494  L 1184 1325  Q 1184 853 1351 631  Q 1519 409 1869 409  Q 2275 409 2490 695  Q 2706 981 2706 1516  L 2706 3494  L 3284 3494  L 3284 0  L 2706 0  L 2706 525  Q 2553 222 2289 65  Q 2025 -91 1672 -91  Q 1134 -91 871 261  Q 609 613 609 1325  z " transform="scale(0.015625)"/>
     </defs>
     <use xlink:href="#DejaVuSansMono-75"/>
    </g>
   </g>
   <g id="text_8">
    <!-- e -->
    <g style="fill: #444443" transform="translate(260.865 9.947031) scale(0.13 -0.13)">
     <use xlink:href="#DejaVuSansMono-65"/>
    </g>
   </g>
   <g id="text_9">
    <!-- r -->
    <g style="fill: #444443" transform="translate(297.135 9.947031) scale(0.13 -0.13)">
     <defs>
      <path id="DejaVuSansMono-72" d="M 3609 2778  Q 3425 2922 3234 2987  Q 3044 3053 2816 3053  Q 2278 3053 1993 2715  Q 1709 2378 1709 1741  L 1709 0  L 1131 0  L 1131 3500  L 1709 3500  L 1709 2816  Q 1853 3188 2151 3386  Q 2450 3584 2859 3584  Q 3072 3584 3256 3531  Q 3441 3478 3609 3366  L 3609 2778  z " transform="scale(0.015625)"/>
     </defs>
     <use xlink:href="#DejaVuSansMono-72"/>
    </g>
   </g>
   <g id="text_10">
    <!-- y -->
    <g style="fill: #444443" transform="translate(333.405 9.947031) scale(0.13 -0.13)">
     <defs>
      <path id="DejaVuSansMono-79" d="M 2681 1125  Q 2538 759 2316 163  Q 2006 -663 1900 -844  Q 1756 -1088 1540 -1209  Q 1325 -1331 1038 -1331  L 575 -1331  L 575 -850  L 916 -850  Q 1169 -850 1312 -703  Q 1456 -556 1678 56  L 325 3500  L 934 3500  L 1972 763  L 2994 3500  L 3603 3500  L 2681 1125  z " transform="scale(0.015625)"/>
     </defs>
     <use xlink:href="#DejaVuSansMono-79"/>
    </g>
   </g>
   <g id="text_11">
    <!-- 31 -->
    <g transform="translate(123.06375 154.326404) rotate(-90) scale(0.09 -0.09)">
     <defs>
      <path id="ArialMT-33" d="M 269 1209  L 831 1284  Q 928 806 1161 595  Q 1394 384 1728 384  Q 2125 384 2398 659  Q 2672 934 2672 1341  Q 2672 1728 2419 1979  Q 2166 2231 1775 2231  Q 1616 2231 1378 2169  L 1441 2663  Q 1497 2656 1531 2656  Q 1891 2656 2178 2843  Q 2466 3031 2466 3422  Q 2466 3731 2256 3934  Q 2047 4138 1716 4138  Q 1388 4138 1169 3931  Q 950 3725 888 3313  L 325 3413  Q 428 3978 793 4289  Q 1159 4600 1703 4600  Q 2078 4600 2393 4439  Q 2709 4278 2876 4000  Q 3044 3722 3044 3409  Q 3044 3113 2884 2869  Q 2725 2625 2413 2481  Q 2819 2388 3044 2092  Q 3269 1797 3269 1353  Q 3269 753 2831 336  Q 2394 -81 1725 -81  Q 1122 -81 723 278  Q 325 638 269 1209  z " transform="scale(0.015625)"/>
      <path id="ArialMT-31" d="M 2384 0  L 1822 0  L 1822 3584  Q 1619 3391 1289 3197  Q 959 3003 697 2906  L 697 3450  Q 1169 3672 1522 3987  Q 1875 4303 2022 4600  L 2384 4600  L 2384 0  z " transform="scale(0.015625)"/>
     </defs>
     <use xlink:href="#ArialMT-33"/>
     <use xlink:href="#ArialMT-31" x="55.615234"/>
    </g>
   </g>
   <g id="text_12">
    <!-- 768 -->
    <g transform="translate(180.817734 84.872561) scale(0.09 -0.09)">
     <defs>
      <path id="ArialMT-37" d="M 303 3981  L 303 4522  L 3269 4522  L 3269 4084  Q 2831 3619 2401 2847  Q 1972 2075 1738 1259  Q 1569 684 1522 0  L 944 0  Q 953 541 1156 1306  Q 1359 2072 1739 2783  Q 2119 3494 2547 3981  L 303 3981  z " transform="scale(0.015625)"/>
      <path id="ArialMT-36" d="M 3184 3459  L 2625 3416  Q 2550 3747 2413 3897  Q 2184 4138 1850 4138  Q 1581 4138 1378 3988  Q 1113 3794 959 3422  Q 806 3050 800 2363  Q 1003 2672 1297 2822  Q 1591 2972 1913 2972  Q 2475 2972 2870 2558  Q 3266 2144 3266 1488  Q 3266 1056 3080 686  Q 2894 316 2569 119  Q 2244 -78 1831 -78  Q 1128 -78 684 439  Q 241 956 241 2144  Q 241 3472 731 4075  Q 1159 4600 1884 4600  Q 2425 4600 2770 4297  Q 3116 3994 3184 3459  z M 888 1484  Q 888 1194 1011 928  Q 1134 663 1356 523  Q 1578 384 1822 384  Q 2178 384 2434 671  Q 2691 959 2691 1453  Q 2691 1928 2437 2201  Q 2184 2475 1800 2475  Q 1419 2475 1153 2201  Q 888 1928 888 1484  z " transform="scale(0.015625)"/>
      <path id="ArialMT-38" d="M 1131 2484  Q 781 2613 612 2850  Q 444 3088 444 3419  Q 444 3919 803 4259  Q 1163 4600 1759 4600  Q 2359 4600 2725 4251  Q 3091 3903 3091 3403  Q 3091 3084 2923 2848  Q 2756 2613 2416 2484  Q 2838 2347 3058 2040  Q 3278 1734 3278 1309  Q 3278 722 2862 322  Q 2447 -78 1769 -78  Q 1091 -78 675 323  Q 259 725 259 1325  Q 259 1772 486 2073  Q 713 2375 1131 2484  z M 1019 3438  Q 1019 3113 1228 2906  Q 1438 2700 1772 2700  Q 2097 2700 2305 2904  Q 2513 3109 2513 3406  Q 2513 3716 2298 3927  Q 2084 4138 1766 4138  Q 1444 4138 1231 3931  Q 1019 3725 1019 3438  z M 838 1322  Q 838 1081 952 856  Q 1066 631 1291 507  Q 1516 384 1775 384  Q 2178 384 2440 643  Q 2703 903 2703 1303  Q 2703 1709 2433 1975  Q 2163 2241 1756 2241  Q 1359 2241 1098 1978  Q 838 1716 838 1322  z " transform="scale(0.015625)"/>
     </defs>
     <use xlink:href="#ArialMT-37"/>
     <use xlink:href="#ArialMT-36" x="55.615234"/>
     <use xlink:href="#ArialMT-38" x="111.230469"/>
    </g>
   </g>
   <g id="text_13">
    <!-- &lt;${\mathit{float32}}$&gt; -->
    <g transform="translate(171.91 218.781029) scale(0.07 -0.07)">
     <defs>
      <path id="ArialMT-3c" d="M 350 2003  L 350 2528  L 3384 3809  L 3384 3250  L 978 2263  L 3384 1266  L 3384 706  L 350 2003  z " transform="scale(0.015625)"/>
      <path id="DejaVuSans-Oblique-66" d="M 3059 4863  L 2969 4384  L 2419 4384  Q 2106 4384 1964 4261  Q 1822 4138 1753 3809  L 1691 3500  L 2638 3500  L 2553 3053  L 1606 3053  L 1013 0  L 434 0  L 1031 3053  L 481 3053  L 563 3500  L 1113 3500  L 1159 3744  Q 1278 4363 1576 4613  Q 1875 4863 2516 4863  L 3059 4863  z " transform="scale(0.015625)"/>
      <path id="DejaVuSans-Oblique-6c" d="M 1172 4863  L 1747 4863  L 800 0  L 225 0  L 1172 4863  z " transform="scale(0.015625)"/>
      <path id="DejaVuSans-Oblique-6f" d="M 1625 -91  Q 1009 -91 651 289  Q 294 669 294 1325  Q 294 1706 417 2101  Q 541 2497 738 2766  Q 1047 3184 1428 3384  Q 1809 3584 2291 3584  Q 2888 3584 3255 3212  Q 3622 2841 3622 2241  Q 3622 1825 3500 1412  Q 3378 1000 3181 728  Q 2875 309 2494 109  Q 2113 -91 1625 -91  z M 891 1344  Q 891 869 1089 633  Q 1288 397 1691 397  Q 2269 397 2648 901  Q 3028 1406 3028 2181  Q 3028 2634 2825 2865  Q 2622 3097 2228 3097  Q 1903 3097 1650 2945  Q 1397 2794 1197 2484  Q 1050 2253 970 1956  Q 891 1659 891 1344  z " transform="scale(0.015625)"/>
      <path id="DejaVuSans-Oblique-61" d="M 3438 1997  L 3047 0  L 2472 0  L 2578 531  Q 2325 219 2001 64  Q 1678 -91 1281 -91  Q 834 -91 548 182  Q 263 456 263 884  Q 263 1497 752 1853  Q 1241 2209 2100 2209  L 2900 2209  L 2931 2363  Q 2938 2388 2941 2417  Q 2944 2447 2944 2509  Q 2944 2788 2717 2942  Q 2491 3097 2081 3097  Q 1800 3097 1504 3025  Q 1209 2953 897 2809  L 997 3341  Q 1322 3463 1633 3523  Q 1944 3584 2234 3584  Q 2853 3584 3176 3315  Q 3500 3047 3500 2534  Q 3500 2431 3484 2292  Q 3469 2153 3438 1997  z M 2816 1759  L 2241 1759  Q 1534 1759 1195 1570  Q 856 1381 856 984  Q 856 709 1029 553  Q 1203 397 1509 397  Q 1978 397 2328 733  Q 2678 1069 2791 1631  L 2816 1759  z " transform="scale(0.015625)"/>
      <path id="DejaVuSans-Oblique-74" d="M 2706 3500  L 2619 3053  L 1472 3053  L 1100 1153  Q 1081 1047 1072 975  Q 1063 903 1063 863  Q 1063 663 1183 572  Q 1303 481 1569 481  L 2150 481  L 2053 0  L 1503 0  Q 991 0 739 200  Q 488 400 488 806  Q 488 878 497 964  Q 506 1050 525 1153  L 897 3053  L 409 3053  L 500 3500  L 978 3500  L 1172 4494  L 1747 4494  L 1556 3500  L 2706 3500  z " transform="scale(0.015625)"/>
      <path id="DejaVuSans-33" d="M 2597 2516  Q 3050 2419 3304 2112  Q 3559 1806 3559 1356  Q 3559 666 3084 287  Q 2609 -91 1734 -91  Q 1441 -91 1130 -33  Q 819 25 488 141  L 488 750  Q 750 597 1062 519  Q 1375 441 1716 441  Q 2309 441 2620 675  Q 2931 909 2931 1356  Q 2931 1769 2642 2001  Q 2353 2234 1838 2234  L 1294 2234  L 1294 2753  L 1863 2753  Q 2328 2753 2575 2939  Q 2822 3125 2822 3475  Q 2822 3834 2567 4026  Q 2313 4219 1838 4219  Q 1578 4219 1281 4162  Q 984 4106 628 3988  L 628 4550  Q 988 4650 1302 4700  Q 1616 4750 1894 4750  Q 2613 4750 3031 4423  Q 3450 4097 3450 3541  Q 3450 3153 3228 2886  Q 3006 2619 2597 2516  z " transform="scale(0.015625)"/>
      <path id="DejaVuSans-32" d="M 1228 531  L 3431 531  L 3431 0  L 469 0  L 469 531  Q 828 903 1448 1529  Q 2069 2156 2228 2338  Q 2531 2678 2651 2914  Q 2772 3150 2772 3378  Q 2772 3750 2511 3984  Q 2250 4219 1831 4219  Q 1534 4219 1204 4116  Q 875 4013 500 3803  L 500 4441  Q 881 4594 1212 4672  Q 1544 4750 1819 4750  Q 2544 4750 2975 4387  Q 3406 4025 3406 3419  Q 3406 3131 3298 2873  Q 3191 2616 2906 2266  Q 2828 2175 2409 1742  Q 1991 1309 1228 531  z " transform="scale(0.015625)"/>
      <path id="ArialMT-3e" d="M 3384 2003  L 350 706  L 350 1266  L 2753 2263  L 350 3250  L 350 3809  L 3384 2528  L 3384 2003  z " transform="scale(0.015625)"/>
     </defs>
     <use xlink:href="#ArialMT-3c" transform="translate(0 0.015625)"/>
     <use xlink:href="#DejaVuSans-Oblique-66" transform="translate(58.398438 0.015625)"/>
     <use xlink:href="#DejaVuSans-Oblique-6c" transform="translate(93.603516 0.015625)"/>
     <use xlink:href="#DejaVuSans-Oblique-6f" transform="translate(121.386719 0.015625)"/>
     <use xlink:href="#DejaVuSans-Oblique-61" transform="translate(182.568359 0.015625)"/>
     <use xlink:href="#DejaVuSans-Oblique-74" transform="translate(243.847656 0.015625)"/>
     <use xlink:href="#DejaVuSans-33" transform="translate(283.056641 0.015625)"/>
     <use xlink:href="#DejaVuSans-32" transform="translate(346.679688 0.015625)"/>
     <use xlink:href="#ArialMT-3e" transform="translate(410.302734 0.015625)"/>
    </g>
   </g>
  </g>
 </g>
 <defs>
  <clipPath id="p58e8576560">
   <rect x="0" y="4.901991" width="369.675" height="208.314169"/>
  </clipPath>
 </defs>
</svg>